<?xml version="1.0" encoding="utf-8"?>
<svg version="1.1" id="Layer_1" x="0px" y="0px" width="100%" viewBox="0 0 480 512" enable-background="new 0 0 480 512" xmlns="http://www.w3.org/2000/svg">
  <ellipse style="paint-order: stroke; fill: rgb(255, 255, 255); stroke-width: 8px; stroke: rgb(172, 43, 55);" cx="240.326" cy="259.255" rx="225.183" ry="224.426"/>
  <path fill="#000000" opacity="1.000000" stroke="none" d=" M55.008034,179.067566 C55.605015,176.491928 57.597065,176.219986 59.314522,175.852539 C86.930191,169.944214 114.466324,163.633606 142.748276,161.475739 C148.486710,161.037918 153.970261,161.101227 159.530640,162.481262 C168.283051,164.653549 172.536835,170.932495 170.508667,179.892151 C167.677399,192.399567 161.452927,203.391281 154.440994,213.979431 C144.854828,228.454758 133.065063,241.180695 122.336914,254.748444 C111.882057,267.970520 100.101807,279.945831 88.771881,292.335663 C81.170929,300.647705 73.736206,309.260101 64.332191,315.750977 C62.652977,316.910004 60.958813,318.344269 58.989025,316.639526 C56.829010,314.770142 58.433765,312.942535 59.587006,311.390289 C66.136383,302.575043 73.004425,293.986237 79.302261,284.996887 C88.458839,271.926971 97.204483,258.569611 106.159912,245.358276 C113.440041,234.618408 120.914047,224.006790 128.027786,213.158432 C132.584732,206.209152 136.828461,199.036484 140.881180,191.778885 C146.705826,181.348038 142.679703,176.797546 131.714920,174.437363 C120.043373,171.925049 108.533051,174.901367 96.995888,175.933853 C84.590385,177.044067 72.171783,178.256927 59.966881,180.966263 C58.160378,181.367294 56.272961,181.352463 55.008034,179.067566 z"/>
  <path fill="#000000" opacity="1.000000" stroke="none" d=" M167.093109,261.097351 C164.911438,271.495453 160.277222,280.553864 156.194305,289.808777 C152.505600,298.170105 148.528488,306.404541 144.653015,314.682953 C144.091736,315.881897 143.454330,317.057404 142.731461,318.164978 C141.993378,319.295929 141.047104,320.483459 139.509567,319.933899 C137.767899,319.311432 137.677078,317.685120 137.949631,316.149994 C138.500885,313.045197 138.976212,309.908417 139.814728,306.876587 C142.385422,297.581848 145.209320,288.356781 147.750412,279.054291 C149.934906,271.057220 148.520767,268.980377 140.549881,267.220306 C137.316986,266.506409 134.102524,265.624634 130.974716,264.544159 C128.185425,263.580627 125.810425,261.905609 125.906723,258.503723 C125.996170,255.343918 128.289688,253.791809 130.920074,252.969376 C137.748520,250.834290 144.775055,251.688873 151.719864,252.115265 C154.836716,252.306625 157.894775,253.357956 160.995697,253.931519 C164.785248,254.632416 166.863800,256.799469 167.093109,261.097351 z"/>
  <path fill="#000000" opacity="1.000000" stroke="none" d=" M406.585022,325.533447 C420.155487,325.734833 424.858276,320.998199 423.988861,308.078033 C419.208771,312.393616 413.642944,314.374847 407.497986,313.798584 C394.692108,312.597717 387.174500,301.257141 389.016815,286.774231 C391.496521,267.280029 410.315033,261.387085 423.514343,272.961365 C423.768341,272.805450 424.209106,272.684235 424.246643,272.486511 C424.660339,270.307709 424.124329,267.112640 427.522614,267.399902 C430.658478,267.664978 430.267517,270.741394 430.273254,272.985138 C430.306061,285.799957 430.361115,298.616821 430.165375,311.429321 C430.054413,318.691986 427.648468,325.042816 420.347961,327.963226 C411.938568,331.327179 403.453461,331.758362 395.598083,326.308319 C394.038574,325.226349 392.869843,323.389465 391.915100,321.680450 C390.927521,319.912659 390.305328,317.679688 392.653687,316.435516 C394.884888,315.253387 396.106445,317.155457 396.886017,318.760254 C398.810852,322.722565 401.970367,324.777252 406.585022,325.533447 M420.000244,276.543671 C410.891357,268.070953 399.546448,271.029999 396.001953,282.912872 C394.552124,287.773560 394.635712,292.826416 395.901794,297.695221 C397.886597,305.327972 402.640503,309.027283 409.709656,308.963501 C416.467987,308.902527 421.609985,304.736908 423.665833,297.578094 C425.763763,290.272736 424.611786,283.451996 420.000244,276.543671 z"/>
  <path fill="#000000" opacity="1.000000" stroke="none" d=" M171.987106,129.715454 C177.879608,127.596207 183.027802,127.868668 186.696655,132.959320 C190.349213,138.027374 190.070267,143.463043 187.286591,148.993011 C185.449921,152.641739 183.391922,155.900024 179.656662,157.921280 C170.739059,162.746826 160.716385,157.266571 161.073837,147.138535 C161.333252,139.788849 164.015610,133.094925 171.987106,129.715454 z"/>
  <path fill="#000000" opacity="1.000000" stroke="none" d=" M349.183472,302.938263 C349.166290,305.426208 349.198425,307.427765 349.120728,309.425079 C349.047943,311.295624 348.907227,313.432312 346.461700,313.509003 C344.030457,313.585236 343.721863,311.582092 343.599182,309.630524 C342.992401,299.977478 342.942993,290.318329 343.246216,280.655273 C343.324524,278.159515 343.467010,275.665619 343.591370,273.171448 C343.702301,270.947418 342.793854,267.977570 346.079163,267.499390 C349.533295,266.996613 348.648834,270.593719 349.870972,272.610931 C354.744690,267.922211 360.466278,266.307343 366.923981,267.648438 C372.481842,268.802643 376.393158,271.988800 377.289307,277.756531 C378.960815,288.513794 377.947357,299.364594 377.907043,310.176758 C377.900604,311.910645 377.138031,313.564789 374.946564,313.459473 C372.729431,313.352936 372.297546,311.483307 372.255157,309.858246 C372.094360,303.696808 372.132324,297.530182 372.095703,291.365509 C372.078857,288.532684 372.162750,285.694885 372.023499,282.868073 C371.713226,276.570496 369.550232,273.310547 364.382446,271.995636 C359.195892,270.675934 355.416626,273.504883 352.240936,277.106781 C349.942932,279.713196 349.326782,283.045197 349.289856,286.452209 C349.232086,291.784576 349.217651,297.117401 349.183472,302.938263 z"/>
  <path fill="#000000" opacity="1.000000" stroke="none" d=" M234.937775,309.339447 C234.617264,311.663666 234.188049,313.568634 231.700684,313.370850 C229.212982,313.173035 229.007996,311.025879 228.995956,309.260864 C228.909653,296.603333 228.925735,283.944855 228.971588,271.286926 C228.977676,269.606781 229.257339,267.713776 231.382736,267.449280 C234.336655,267.081696 234.537018,269.845398 235.841660,272.074707 C240.549622,268.184692 245.838562,266.489319 251.943787,267.604828 C258.584930,268.818237 262.758087,272.955017 263.271576,279.629089 C264.000275,289.100159 264.083679,298.596130 263.811615,308.086823 C263.749420,310.256866 264.185516,313.425293 260.824402,313.413391 C257.514160,313.401642 257.863831,310.365417 257.844727,308.102325 C257.777222,300.107574 257.843445,292.111786 257.800598,284.116699 C257.759796,276.502258 254.442947,271.998474 248.594910,271.481903 C242.637024,270.955627 235.783051,276.768463 235.393753,283.440948 C234.899597,291.911102 235.074112,300.420227 234.937775,309.339447 z"/>
  <path fill="#000000" opacity="1.000000" stroke="none" d=" M206.702759,310.156158 C200.458069,314.852539 194.035751,314.853912 187.655258,311.650452 C181.779221,308.700226 180.873047,303.029510 180.850006,297.153015 C180.817383,288.835388 180.799606,280.517242 180.866821,272.200043 C180.882477,270.264221 180.686295,267.707703 183.382751,267.487457 C186.391907,267.241669 186.715591,269.884094 186.742065,272.027985 C186.836502,279.676575 186.892914,287.331787 186.678116,294.976440 C186.450577,303.074341 189.228271,307.705902 195.278931,308.566284 C201.005264,309.380524 207.659271,304.540649 209.027222,297.994293 C210.603348,290.451782 209.336502,282.736572 209.776459,275.115906 C209.934052,272.386536 208.345947,267.750000 212.374176,267.671936 C217.086929,267.580658 215.190002,272.436035 215.245804,275.182465 C215.468765,286.157806 215.392456,297.140167 215.336075,308.119476 C215.325623,310.155029 215.985260,312.980438 213.001862,313.416718 C209.436844,313.938049 210.138657,310.583496 209.451843,308.601471 C208.154541,308.273621 207.754150,309.463928 206.702759,310.156158 z"/>
  <path fill="#000000" opacity="1.000000" stroke="none" d=" M282.491882,289.539856 C282.442505,296.483368 282.437073,302.969757 282.424652,309.456116 C282.421021,311.348755 282.414764,313.352448 279.811554,313.422974 C277.326935,313.490356 276.809082,311.612549 276.802673,309.681671 C276.759979,296.874786 276.757812,284.067596 276.815216,271.260803 C276.823608,269.385895 277.257751,267.242218 279.719238,267.436829 C282.889679,267.687531 282.269318,270.710358 282.677948,273.522919 C287.526215,268.209076 292.890442,266.433594 299.315765,267.537323 C306.304260,268.737823 310.878845,273.066925 311.134338,280.212891 C311.484802,290.014069 311.269165,299.836090 311.258789,309.649109 C311.256775,311.565521 310.987335,313.568115 308.405731,313.395142 C305.972626,313.232178 305.731293,311.250824 305.724884,309.339050 C305.696411,300.856201 305.726654,292.373077 305.680969,283.890381 C305.640900,276.455322 302.101257,271.894775 296.157990,271.496796 C290.640594,271.127319 284.149200,276.669128 283.214661,282.633789 C282.880493,284.766663 282.754303,286.932098 282.491882,289.539856 z"/>
  <path fill="#000000" opacity="1.000000" stroke="none" d=" M385.452362,345.996368 C393.839264,345.960938 397.855682,348.357697 400.087219,354.433716 C402.802673,361.827362 401.031403,371.296143 396.169250,375.377960 C391.613159,379.202881 385.209747,379.169220 377.884369,375.256348 C376.117950,375.146271 376.327942,378.635651 374.114105,377.531067 C372.277283,376.614563 372.692810,374.674347 372.687439,373.055695 C372.650604,361.889893 372.626099,350.723846 372.678955,339.558258 C372.686981,337.863953 372.167633,335.259033 374.789062,335.314148 C377.206970,335.365021 376.927643,337.898865 376.985718,339.651703 C377.089844,342.794128 377.015076,345.942444 377.015076,349.665222 C380.108307,348.459656 382.204376,346.320099 385.452362,345.996368 M383.576508,374.072723 C388.111664,375.550293 391.945953,374.379089 394.492279,370.438141 C397.836395,365.262390 397.848145,359.663635 394.958191,354.298615 C391.860718,348.548370 385.496460,347.689789 380.628693,352.091705 C374.635895,357.510956 375.836700,369.083344 383.576508,374.072723 z"/>
  <path fill="#000000" opacity="1.000000" stroke="none" d=" M361.509460,377.783936 C359.552368,377.793823 359.322845,376.087250 358.279510,375.422638 C356.441589,376.255157 354.717255,377.321259 352.841644,377.835144 C345.717804,379.786926 339.533264,375.588776 339.114410,368.270966 C338.772919,362.304871 338.972076,356.305023 339.026581,350.320984 C339.041351,348.699554 339.057465,346.466339 341.199158,346.451355 C343.938110,346.432129 343.270020,348.959534 343.298889,350.635559 C343.384796,355.621826 343.295654,360.610870 343.341156,365.598175 C343.389954,370.947144 345.543030,373.918427 349.559906,374.327454 C353.700928,374.749115 358.030518,371.396271 358.542877,366.661102 C359.041382,362.054443 358.783325,357.367310 358.893616,352.716400 C358.928986,351.224884 358.968567,349.717346 359.216064,348.252625 C359.384186,347.257751 360.016693,346.365692 361.208374,346.367615 C362.406677,346.369537 363.104614,347.252838 363.108246,348.272614 C363.142517,357.869141 363.995239,367.483246 362.586517,377.050415 C362.549927,377.299011 362.116943,377.489227 361.509460,377.783936 z"/>
  <path fill="#000000" opacity="1.000000" stroke="none" d=" M215.833160,161.337997 C218.096542,164.509201 215.444733,166.510818 214.169006,168.453964 C208.340881,177.331070 202.170334,185.982666 196.192856,194.762955 C194.880798,196.690247 193.060989,197.650528 190.963455,198.311707 C185.514404,200.029312 179.924377,200.635773 174.244659,200.245636 C172.325577,200.113815 169.603790,200.146683 169.674576,197.544037 C169.744186,194.983963 172.455353,195.704483 174.087708,195.716629 C177.265320,195.740234 180.348938,195.349518 183.467911,194.795319 C188.325180,193.932205 191.951340,191.406342 194.960236,187.593643 C200.523071,180.544754 205.408371,173.029068 210.488205,165.644516 C211.771942,163.778336 212.764053,161.478271 215.833160,161.337997 z"/>
  <path fill="#000000" opacity="1.000000" stroke="none" d=" M317.878296,367.030396 C321.082153,369.182281 319.200745,371.271606 317.957245,373.054291 C314.726471,377.686096 309.852386,378.634735 304.667877,378.103882 C299.150574,377.538971 295.524353,374.262207 293.803314,369.090088 C292.238281,364.386780 292.288086,359.515137 293.845551,354.837891 C295.569916,349.659546 299.297791,346.475006 304.822998,345.982758 C309.831848,345.536499 314.527344,346.411011 317.571594,351.036774 C318.441895,352.359192 319.953278,354.069214 318.356659,355.474762 C316.445892,357.156799 315.498810,354.985474 314.574921,353.726166 C312.218536,350.514404 309.196167,348.635223 305.157776,349.539429 C301.002106,350.469879 298.691010,353.590454 297.620056,357.455414 C296.772369,360.514648 296.831970,363.791077 297.636353,366.857574 C298.660583,370.762421 300.906281,373.916473 305.219574,374.576691 C309.403442,375.217163 312.676025,373.525055 314.866547,369.839417 C315.538818,368.708252 316.091125,367.439484 317.878296,367.030396 z"/>
  <path fill="#000000" opacity="1.000000" stroke="none" d=" M330.408508,270.661377 C330.451324,283.215240 330.447296,295.378784 330.436615,307.542358 C330.435730,308.541138 330.436249,309.543793 330.353516,310.537750 C330.216156,312.188141 329.599854,313.497437 327.659119,313.462036 C325.781555,313.427826 324.907196,312.124969 324.898560,310.519165 C324.826904,297.193909 324.830170,283.868134 324.868042,270.542694 C324.871918,269.179596 325.360626,267.789062 326.947479,267.501160 C329.043640,267.120911 329.948212,268.449768 330.408508,270.661377 z"/>
  <path fill="#000000" opacity="1.000000" stroke="none" d=" M87.521690,185.662201 C87.094254,183.619476 86.570457,181.945862 88.689781,181.053162 C92.273193,184.510971 98.376648,241.903137 95.672157,246.266571 C93.086922,244.138290 88.932861,213.245682 87.521690,185.662201 z"/>
  <path fill="#000000" opacity="1.000000" stroke="none" d=" M326.760071,375.472992 C326.676178,363.233551 326.623993,351.437225 326.670258,339.641327 C326.676819,337.970947 325.992157,335.361572 328.563568,335.241455 C331.108734,335.122559 330.836792,337.668701 330.822845,339.408600 C330.731110,350.854828 330.578003,362.300690 330.391357,373.745819 C330.368469,375.149139 330.807953,376.953674 328.893005,377.541473 C327.713348,377.903534 327.175873,376.898560 326.760071,375.472992 z"/>
  <path fill="#000000" opacity="1.000000" stroke="none" d=" M327.949097,252.158051 C330.500488,253.012573 331.654022,254.462143 330.786407,256.796265 C330.223114,258.311676 328.929901,259.136017 327.259857,258.971710 C325.571472,258.805603 324.499695,257.683197 324.252197,256.109192 C323.868774,253.670731 325.245941,252.438873 327.949097,252.158051 z"/>
</svg>