<svg version="1.1" id="Layer_1" xmlns="http://www.w3.org/2000/svg" xmlns:xlink="http://www.w3.org/1999/xlink" x="0px" y="0px"
	 width="100%" viewBox="0 0 416 416" enable-background="new 0 0 416 416" xml:space="preserve">
<path fill="#ffffff" opacity="1.000000" stroke="none" 
	d="
M83.238388,385.256836 
	C75.473740,391.526245 69.596466,399.417542 61.118538,404.362946 
	C58.312908,405.999573 55.659897,407.968140 52.377159,406.288483 
	C48.444984,404.276611 48.018738,400.251617 50.830986,396.055603 
	C59.181591,383.596130 68.587669,371.929810 78.013550,360.302094 
	C92.616295,342.288208 105.189247,322.865845 118.183907,303.725739 
	C122.485390,297.390015 127.489716,291.501923 131.455811,284.973663 
	C142.659485,266.532196 154.855362,248.747589 166.893173,230.865387 
	C174.602676,219.412842 183.757507,208.954788 191.008636,197.165146 
	C202.492920,178.492828 214.773544,160.299850 224.936935,140.827530 
	C227.144318,136.598389 228.050720,132.037888 228.698914,127.449333 
	C229.823746,119.486725 226.820190,115.232193 216.580704,110.414497 
	C206.999374,105.906464 196.561142,105.499664 186.275070,105.410461 
	C172.799179,105.293617 159.456482,107.382782 146.058929,108.746101 
	C129.172318,110.464455 112.317360,112.499565 95.428772,114.201973 
	C87.145958,115.036896 78.766548,115.554832 70.659149,117.285629 
	C64.174965,118.669884 57.767052,120.202332 51.148869,120.817276 
	C49.285187,120.990448 47.554352,120.963005 45.737080,120.498413 
	C43.688145,119.974594 42.627510,118.730827 42.161007,116.788429 
	C41.690617,114.829842 42.889389,113.668259 44.164532,112.542969 
	C45.727386,111.163788 47.659161,110.738724 49.630970,110.286682 
	C57.899624,108.391083 66.487579,107.461273 74.493378,105.043152 
	C89.008286,100.658981 103.915352,98.408379 118.674141,95.660622 
	C136.465973,92.348190 154.211136,88.624542 172.260239,86.486717 
	C182.754990,85.243675 193.257446,83.284363 203.731796,81.498497 
	C209.964752,80.435791 216.260574,79.639259 222.585419,79.844688 
	C231.049698,80.119606 239.352493,77.264732 247.888245,78.878853 
	C256.386749,80.485931 265.049408,81.534302 273.054382,84.941277 
	C279.838806,87.828773 282.980133,93.941353 285.154175,100.613846 
	C288.084808,109.608604 286.651215,118.493927 283.742249,127.048988 
	C278.058258,143.765213 270.694366,159.854340 261.446655,174.837143 
	C251.845718,190.392227 241.613998,205.633179 229.925583,219.760468 
	C213.384201,239.753296 196.477249,259.481995 180.440567,279.844879 
	C164.937973,299.529633 147.284943,317.096344 130.512802,335.533875 
	C117.090973,350.288422 103.490669,364.881165 89.895340,379.476593 
	C87.983208,381.529388 85.648254,383.188354 83.238388,385.256836 
z"/>
<path fill="#ffffff" opacity="1.000000" stroke="none" 
	d="
M218.421234,411.199646 
	C216.146805,408.610504 216.899887,405.961487 217.144318,403.312408 
	C218.363159,390.102753 223.197144,377.792511 226.618790,365.137848 
	C230.172409,351.995056 234.084564,338.949554 237.753815,325.837433 
	C239.152557,320.839050 239.684067,315.762177 238.881622,310.541412 
	C238.266708,306.540649 236.028015,303.937897 232.289444,303.372528 
	C223.384109,302.025696 214.999954,298.693634 206.203445,296.968689 
	C202.751846,296.291870 199.590591,294.581757 196.794022,292.505402 
	C190.541458,287.863159 189.761719,280.559967 195.358383,275.286102 
	C199.783234,271.116516 205.442474,269.511902 211.682297,269.291962 
	C221.142242,268.958527 230.582947,268.647430 240.052582,268.932068 
	C250.803665,269.255219 261.104340,271.776031 271.317535,274.814301 
	C274.661774,275.809143 276.297424,278.432129 277.310577,281.625427 
	C279.799927,289.471649 277.664886,296.813446 274.668030,303.916138 
	C266.842468,322.463287 259.202393,341.088135 250.393509,359.215637 
	C245.465942,369.355865 241.874817,380.170959 236.600433,390.108154 
	C233.190308,396.532990 231.083679,403.681641 226.365601,409.429993 
	C224.231293,412.030396 222.026703,413.622955 218.421234,411.199646 
z"/>
<path fill="#ffffff" opacity="1.000000" stroke="none" 
	d="
M315.203461,15.729935 
	C325.912659,25.573248 328.013763,40.353394 321.329437,53.002640 
	C317.638092,59.987988 314.154022,66.890419 306.935852,70.959747 
	C290.722687,80.100121 279.077240,79.031265 269.286774,63.633488 
	C263.891357,55.147919 264.169159,44.912018 268.455780,35.409107 
	C271.189362,29.349215 274.169250,23.348948 279.048767,18.659050 
	C285.844604,12.127280 294.964600,11.528278 303.499481,10.027413 
	C307.850800,9.262227 311.366913,13.077924 315.203461,15.729935 
z"/>
<path fill="#ffffff" opacity="1.000000" stroke="none" 
	d="
M325.697632,157.952576 
	C313.106567,161.236572 300.787018,162.303726 288.267090,160.256805 
	C286.391357,159.950150 284.674774,159.506012 283.467072,157.947723 
	C281.274017,155.118103 282.307648,152.699265 285.842590,151.808441 
	C291.737885,150.322800 297.751373,151.904755 303.663330,150.907883 
	C313.304626,149.282196 323.030151,148.154175 330.899994,141.283875 
	C333.744629,138.800568 335.477661,135.613647 337.846436,132.864899 
	C351.047089,117.546616 360.891479,99.858307 372.789032,83.623772 
	C374.355713,81.485954 375.562805,78.957245 378.711334,78.804848 
	C380.355499,78.725266 382.124298,78.350471 383.314117,79.953270 
	C384.529968,81.591232 383.632202,83.095009 382.883179,84.604950 
	C379.773895,90.872879 375.892517,96.646767 371.920959,102.395973 
	C361.056580,118.123238 349.460205,133.348373 339.312256,149.564529 
	C336.182343,154.566040 331.037323,155.963806 325.697632,157.952576 
z"/>
<path fill="#ffffff" opacity="1.000000" stroke="none" 
	d="
M118.606476,205.392365 
	C117.275429,191.041534 116.102829,177.130142 114.685394,163.243759 
	C113.435509,150.998856 112.059242,138.762054 110.414284,126.565430 
	C109.959358,123.192345 110.419167,120.735283 113.816902,120.018250 
	C117.708488,119.197006 117.764641,122.312965 118.291626,125.018127 
	C121.957993,143.838852 122.404648,162.988174 124.118309,182.002930 
	C125.043159,192.264969 128.022415,202.166992 128.751877,212.456680 
	C129.632980,224.885345 131.044540,237.276321 131.936539,249.704407 
	C132.172516,252.992233 132.786331,257.839294 128.152176,258.202942 
	C123.015060,258.606018 123.353905,253.348572 122.983459,250.030930 
	C121.341263,235.323898 120.066307,220.575882 118.606476,205.392365 
z"/>
</svg>