<svg version="1.1" id="Layer_1" xmlns="http://www.w3.org/2000/svg" xmlns:xlink="http://www.w3.org/1999/xlink" x="0px" y="0px"
	 width="100%" viewBox="0 0 560 416" enable-background="new 0 0 560 416" xml:space="preserve">
<path fill="#000000" opacity="1.000000" stroke="none" 
	d="
M50.746613,273.782196 
	C64.461281,257.575073 75.725403,239.993973 87.106125,222.618835 
	C99.867119,203.136398 113.369370,184.186539 126.265366,164.819092 
	C134.362289,152.659012 142.483139,140.440643 148.886917,127.215836 
	C155.357330,113.853355 149.911469,108.761436 136.626144,105.541733 
	C125.350868,102.809166 113.730125,104.342560 102.302261,105.533340 
	C85.425568,107.291908 68.594719,109.493919 51.713909,111.207130 
	C47.195290,111.665718 43.051834,113.570663 38.541607,113.820969 
	C37.382805,113.885284 36.234295,114.229401 35.078934,114.241478 
	C32.790222,114.265396 29.833527,114.771965 29.463881,111.612877 
	C29.142756,108.868454 31.866043,108.414955 33.952065,107.859940 
	C35.720303,107.389465 37.508114,106.985115 39.299648,106.610802 
	C64.032120,101.443420 88.709145,96.075188 113.729813,92.297371 
	C128.215546,90.110199 142.665558,87.832848 157.283524,87.115692 
	C165.300919,86.722359 173.246124,88.384720 180.623230,91.586365 
	C186.242157,94.024971 189.732727,103.569366 188.536835,111.246635 
	C187.029709,120.921745 183.068222,129.795593 178.698837,138.346481 
	C164.403854,166.321777 143.126648,189.223770 123.731659,213.543549 
	C108.125305,233.112640 90.572746,250.838745 73.809288,269.305481 
	C64.013245,280.096863 54.126549,290.944916 42.164551,299.541138 
	C39.961662,301.124176 37.664330,303.054993 35.074306,300.649445 
	C32.455967,298.217590 34.105827,295.829895 35.789623,293.602264 
	C40.709026,287.093903 45.608559,280.570526 50.746613,273.782196 
z"/>
<path fill="#000000" opacity="1.000000" stroke="none" 
	d="
M163.096634,275.981567 
	C159.363708,283.826141 155.799713,291.332428 152.220886,298.831604 
	C151.648514,300.030914 151.077560,301.240051 150.385834,302.371155 
	C149.300110,304.146484 147.932159,305.766388 145.575424,305.030182 
	C143.251862,304.304291 143.517227,302.137482 143.781631,300.390686 
	C144.402054,296.291656 145.023071,292.163055 146.094452,288.167267 
	C149.966736,273.725189 154.227341,259.384674 157.925797,244.899719 
	C159.709976,237.912064 157.171860,234.703568 150.202362,233.194229 
	C145.499954,232.175873 140.813156,231.063431 136.168915,229.809647 
	C134.428513,229.339813 132.737488,228.501358 131.184631,227.564606 
	C128.636719,226.027588 126.788719,223.865295 127.137222,220.652863 
	C127.466232,217.620071 129.194946,215.513229 131.945023,214.131546 
	C135.954681,212.117035 140.253632,211.959564 144.592651,211.854675 
	C154.589371,211.613037 164.554123,211.489059 174.288330,214.451447 
	C182.973312,217.094528 185.509720,221.950974 182.313980,230.632431 
	C177.541977,243.595886 172.006058,256.241364 166.226288,268.782654 
	C165.184113,271.044037 164.246521,273.353607 163.096634,275.981567 
z"/>
<path fill="#000000" opacity="1.000000" stroke="none" 
	d="
M508.988525,318.350922 
	C501.331024,317.120300 495.955322,313.372070 492.726990,306.732605 
	C491.552612,304.317383 491.038055,301.662018 493.757294,300.100433 
	C496.562073,298.489838 497.908539,300.955048 499.200165,302.912354 
	C506.102661,313.372498 520.136780,316.112610 530.545288,309.022400 
	C536.157654,305.199249 538.554077,297.757996 537.059631,287.597900 
	C530.652344,294.107117 523.118652,296.838562 514.415771,296.325287 
	C504.830292,295.760040 497.486694,291.546051 493.163208,282.891693 
	C487.380005,271.315491 487.308685,259.353729 492.520599,247.663391 
	C499.653534,231.664124 521.221008,227.572388 534.169739,239.443848 
	C535.010742,240.214935 535.833984,241.005402 536.730591,241.848007 
	C538.276917,240.274963 537.512695,238.519745 537.679871,236.966751 
	C537.925110,234.688522 538.879272,233.070862 541.272522,232.948563 
	C543.769348,232.820953 544.754089,234.615738 545.088501,236.744843 
	C545.319397,238.215408 545.327820,239.730865 545.327454,241.226242 
	C545.323425,257.042603 545.398254,272.859863 545.254150,288.675079 
	C545.044922,311.631104 532.119202,322.284637 508.988525,318.350922 
M510.633606,289.252075 
	C523.625000,291.654236 531.732727,287.988373 535.709656,277.040771 
	C539.125549,267.637543 538.840149,258.124756 534.051453,249.044968 
	C530.350769,242.028214 524.322449,238.379257 516.602966,238.653275 
	C508.472626,238.941864 502.387878,243.133743 499.384521,250.949493 
	C495.971252,259.831970 496.025604,268.824249 499.224670,277.772491 
	C501.112732,283.053650 504.550507,286.923431 510.633606,289.252075 
z"/>
<path fill="#000000" opacity="1.000000" stroke="none" 
	d="
M207.340073,77.269585 
	C204.591217,80.255547 201.759964,82.556938 198.237564,83.805695 
	C192.272552,85.920395 186.620407,86.176353 181.473190,81.482361 
	C175.940231,76.436623 174.796097,70.035347 175.982452,63.260086 
	C178.143524,50.918274 186.595322,43.391422 198.961884,42.051239 
	C204.232422,41.480057 212.149979,48.734932 213.350037,54.575500 
	C215.101456,63.099499 212.370911,70.257477 207.340073,77.269585 
z"/>
<path fill="#000000" opacity="1.000000" stroke="none" 
	d="
M212.035034,293.229004 
	C205.768204,289.319641 203.389542,283.547882 203.231827,276.949982 
	C202.937592,264.642029 203.021851,252.324387 203.023895,240.010788 
	C203.024139,238.536270 203.370865,237.027573 203.774368,235.595978 
	C204.284180,233.787292 205.645935,232.849487 207.523163,232.947357 
	C209.250900,233.037445 210.255646,234.122269 210.481995,235.795639 
	C210.748505,237.765671 211.038742,239.752808 211.048584,241.733871 
	C211.102371,252.551880 210.976273,263.371429 211.103989,274.188202 
	C211.201065,282.411072 213.926926,286.619781 220.010025,288.669739 
	C226.126068,290.730865 234.009506,288.203613 238.279358,282.704132 
	C241.341354,278.760315 242.772598,274.231323 242.776306,269.232635 
	C242.783188,259.912262 242.800232,250.591736 242.867599,241.271683 
	C242.880768,239.450745 243.046295,237.617310 243.316238,235.815826 
	C243.561447,234.179474 244.590073,233.101212 246.304001,232.940994 
	C248.271591,232.757095 249.500519,233.886429 250.018036,235.610229 
	C250.391373,236.853745 250.455582,238.225418 250.456360,239.540054 
	C250.466278,256.183380 250.443237,272.826752 250.414764,289.470093 
	C250.412781,290.630524 250.455811,291.825073 250.206940,292.943481 
	C249.776581,294.877380 248.730957,296.325378 246.460922,296.210052 
	C244.469833,296.108917 243.509613,294.794403 243.151260,293.034729 
	C242.856247,291.586182 242.783463,290.092377 242.519485,287.820923 
	C233.460770,296.755371 223.529373,298.968628 212.035034,293.229004 
z"/>
<path fill="#000000" opacity="1.000000" stroke="none" 
	d="
M335.252167,235.770477 
	C336.227661,233.416458 337.697083,232.343674 339.746979,233.082901 
	C343.525330,234.445465 341.995483,238.137115 342.957764,241.322006 
	C349.768311,233.678833 358.026794,231.303787 367.693604,233.627914 
	C375.877045,235.595413 380.259583,239.807831 381.338684,248.140656 
	C383.204681,262.550446 381.982880,277.056824 382.056976,291.521240 
	C382.069427,293.950531 381.250763,296.387207 378.068756,296.117523 
	C374.988220,295.856476 374.636963,293.416656 374.636139,290.955292 
	C374.632294,279.301605 374.782135,267.645996 374.608826,255.995056 
	C374.515961,249.749390 373.819855,243.619522 367.166779,240.277359 
	C357.026978,235.183640 344.298096,243.284607 343.168732,255.516373 
	C342.156372,266.480804 342.396149,277.461060 342.374329,288.441986 
	C342.371033,290.101837 342.372131,291.779907 342.137482,293.415985 
	C341.899048,295.078552 340.750397,296.007568 339.057709,296.174713 
	C337.332703,296.345001 336.135315,295.557770 335.575348,293.971008 
	C335.192780,292.886932 334.815063,291.720856 334.818878,290.592773 
	C334.880280,272.455444 335.003357,254.318375 335.252167,235.770477 
z"/>
<path fill="#000000" opacity="1.000000" stroke="none" 
	d="
M429.253235,296.111481 
	C426.003540,294.561493 426.486969,291.841187 426.475159,289.421234 
	C426.393127,272.606964 426.380981,255.792313 426.345306,238.977783 
	C426.339844,236.402908 426.363892,233.579758 429.554443,233.043747 
	C433.069611,232.453156 433.400208,235.399200 433.888641,237.875504 
	C434.046967,238.678162 434.114563,239.498703 434.224457,240.317078 
	C436.093536,240.728409 436.533966,239.106949 437.424225,238.339447 
	C445.163605,231.667267 457.299255,230.813446 465.847717,236.386551 
	C471.683441,240.191116 473.155304,246.131943 473.267700,252.434357 
	C473.487396,264.754944 473.383301,277.082001 473.340210,289.406097 
	C473.330139,292.287628 474.077606,296.252014 469.567139,296.062012 
	C465.345856,295.884247 465.926666,291.980042 465.899750,289.082336 
	C465.785309,276.759796 466.018402,264.429047 465.649719,252.115540 
	C465.390991,243.473892 458.235382,237.431549 450.507416,238.588455 
	C441.639923,239.915955 434.656830,247.313995 434.366943,256.359161 
	C434.009644,267.507782 434.146973,278.671417 433.936188,289.826050 
	C433.881653,292.712219 434.281403,296.236267 429.253235,296.111481 
z"/>
<path fill="#000000" opacity="1.000000" stroke="none" 
	d="
M301.115417,233.465973 
	C311.759094,236.336395 316.156219,241.590607 316.314362,252.061722 
	C316.510529,265.050293 316.368805,278.044006 316.365875,291.035522 
	C316.365326,293.502960 316.073120,295.996674 312.931000,296.126709 
	C309.453705,296.270569 308.971558,293.493805 308.947388,290.945221 
	C308.838318,279.453796 308.918884,267.960693 308.846130,256.468750 
	C308.773010,244.923416 303.922241,238.482330 295.406586,238.441925 
	C286.068359,238.397614 277.667511,246.776550 277.367401,256.932587 
	C277.077209,266.751678 277.249329,276.584320 277.209808,286.411011 
	C277.203094,288.076111 277.234406,289.747375 277.104187,291.404510 
	C276.909088,293.887787 276.217560,296.157867 273.142731,296.177124 
	C269.810913,296.197968 269.625732,293.693146 269.621826,291.269653 
	C269.595428,274.947510 269.601807,258.625275 269.602203,242.303070 
	C269.602264,240.637833 269.609497,238.971954 269.654785,237.307495 
	C269.714050,235.129181 270.363312,233.211014 272.857147,232.987869 
	C275.609161,232.741608 276.592651,234.713608 277.047302,237.005203 
	C277.271210,238.133774 277.326569,239.295761 277.562012,241.346725 
	C284.099487,234.157455 291.684662,231.415604 301.115417,233.465973 
z"/>
<path fill="#000000" opacity="1.000000" stroke="none" 
	d="
M492.148834,341.264404 
	C501.152466,344.270447 504.575958,350.992340 505.217010,359.332520 
	C505.894623,368.147766 504.549164,376.800812 496.240906,381.682770 
	C488.039459,386.501953 479.653351,385.413879 472.375641,379.151733 
	C471.136444,379.684265 471.458771,380.650635 471.351776,381.408325 
	C471.142944,382.887512 470.538940,383.990936 468.903748,384.031616 
	C466.918671,384.080994 466.461731,382.574707 466.231903,381.045135 
	C466.035034,379.734955 465.952667,378.396149 465.950867,377.069824 
	C465.930756,362.260437 465.936035,347.451019 465.935089,332.641602 
	C465.935059,332.142426 465.858368,331.625824 465.959015,331.147095 
	C466.405579,329.022919 465.670380,325.688873 468.870819,325.729095 
	C472.344727,325.772705 471.254730,329.132355 471.322662,331.231598 
	C471.481354,336.134186 471.373383,341.045410 471.373383,347.425323 
	C477.906219,341.070374 484.528137,339.881744 492.148834,341.264404 
M485.561493,379.837708 
	C493.281860,379.265442 498.086853,374.725128 499.455261,366.709167 
	C501.069855,357.251190 497.394348,348.500702 490.588531,345.835602 
	C489.381317,345.362885 488.005310,345.184174 486.696503,345.130249 
	C478.365845,344.786896 472.407196,350.943298 471.412354,360.838715 
	C470.397552,370.932129 475.451202,378.121307 485.561493,379.837708 
z"/>
<path fill="#000000" opacity="1.000000" stroke="none" 
	d="
M452.835571,381.329498 
	C452.226959,383.079773 451.516663,384.210663 449.869873,384.009583 
	C447.102539,383.671692 448.271149,380.745850 446.864716,379.184967 
	C442.123627,383.666626 436.541443,385.254242 430.288025,383.861694 
	C424.058563,382.474487 420.509338,378.650146 420.158569,371.884827 
	C419.702057,363.079041 419.893219,354.236328 419.942841,345.410278 
	C419.953796,343.458710 420.187622,340.998383 422.972992,341.133545 
	C425.530365,341.257660 425.291718,343.575867 425.303925,345.362946 
	C425.353973,352.692627 425.307220,360.022949 425.346649,367.352753 
	C425.385132,374.505096 428.559723,378.983643 433.894775,379.526733 
	C439.444092,380.091675 445.456299,375.294922 446.808533,369.134277 
	C448.327667,362.213135 447.185638,355.174774 447.668457,348.213318 
	C447.842773,345.700745 446.096802,341.333740 450.105560,341.278412 
	C454.445282,341.218506 453.015198,345.747192 453.043091,348.430542 
	C453.155518,359.254395 453.000854,370.081085 452.835571,381.329498 
z"/>
<path fill="#000000" opacity="1.000000" stroke="none" 
	d="
M219.187195,127.212723 
	C228.582764,116.113075 236.003342,104.032959 244.129211,92.457329 
	C244.799149,91.502991 245.410767,90.504753 246.122772,89.583557 
	C247.404175,87.925667 249.102081,86.266518 251.155273,87.530754 
	C253.704391,89.100372 251.629654,91.035667 250.707520,92.609146 
	C243.375015,105.120956 234.440018,116.552818 226.393661,128.584244 
	C223.503250,132.906189 220.795166,137.107864 215.124207,138.441559 
	C206.629135,140.439377 198.178299,141.984253 189.480499,140.035339 
	C187.931320,139.688202 186.586533,138.865799 186.751572,137.008301 
	C186.937134,134.919891 188.763992,135.036362 190.180573,134.915222 
	C195.302322,134.477158 200.429153,134.793091 205.572449,133.716721 
	C210.635635,132.657104 215.020538,130.711731 219.187195,127.212723 
z"/>
<path fill="#000000" opacity="1.000000" stroke="none" 
	d="
M372.521545,379.709778 
	C379.494324,380.509613 384.152405,377.701447 387.346985,372.089600 
	C388.316742,370.386047 389.260437,368.033539 391.784546,369.623230 
	C394.115753,371.091492 392.698669,373.246613 391.885834,374.966522 
	C388.720795,381.663788 381.457977,385.068481 372.470642,384.212860 
	C364.862823,383.488525 358.783630,378.269287 357.065521,370.654236 
	C355.689270,364.554260 355.881073,358.393829 357.818726,352.442322 
	C360.033875,345.638519 364.817902,341.649750 372.013763,340.898132 
	C379.372681,340.129486 386.036194,341.454498 390.438049,348.142120 
	C391.543732,349.821960 393.493530,352.127930 391.071655,353.835236 
	C388.445404,355.686768 387.458252,352.834961 386.248108,351.147797 
	C383.091766,346.747070 378.953644,344.436829 373.409821,345.234039 
	C367.852325,346.033264 364.583496,349.489685 362.766937,354.558807 
	C358.939178,365.240112 363.085266,376.352631 372.521545,379.709778 
z"/>
<path fill="#000000" opacity="1.000000" stroke="none" 
	d="
M400.668579,248.011169 
	C400.732361,244.020950 400.701630,240.522766 400.895996,237.037125 
	C401.013763,234.925140 401.795349,232.978027 404.357361,232.936981 
	C407.104340,232.892960 408.170715,234.787506 408.231415,237.181778 
	C408.374725,242.836868 408.388245,248.496002 408.396240,254.153595 
	C408.412933,265.959320 408.403595,277.765137 408.370636,289.570862 
	C408.366943,290.892914 408.268677,292.242096 407.987305,293.529083 
	C407.635742,295.136902 406.565155,296.117645 404.834381,296.218781 
	C403.083557,296.321045 401.831573,295.452942 401.479492,293.850555 
	C401.020203,291.760101 400.722839,289.590088 400.711273,287.452423 
	C400.640991,274.471405 400.671844,261.489868 400.668579,248.011169 
z"/>
<path fill="#000000" opacity="1.000000" stroke="none" 
	d="
M81.181305,137.120728 
	C81.159370,151.454987 84.489258,164.948410 85.735535,178.671387 
	C86.351776,185.456894 86.908669,192.252319 87.249786,199.055405 
	C87.344505,200.944443 88.347435,204.075958 85.049118,204.165466 
	C82.072334,204.246246 82.299957,201.089523 82.126472,199.177475 
	C81.406189,191.239105 80.684448,183.308060 79.795311,175.381302 
	C77.665756,156.396103 75.902802,137.369873 73.960793,118.363380 
	C73.775002,116.545021 73.852188,114.865639 75.997887,114.485611 
	C78.222603,114.091583 78.253624,115.962029 78.462814,117.403526 
	C79.393387,123.815865 80.274727,130.235352 81.181305,137.120728 
z"/>
<path fill="#000000" opacity="1.000000" stroke="none" 
	d="
M408.226227,334.161316 
	C408.221863,348.442047 408.217377,362.243164 408.211182,376.044312 
	C408.210724,377.041931 408.275269,378.047424 408.174835,379.035553 
	C407.962555,381.123932 408.259552,383.988434 405.260925,383.911865 
	C402.174347,383.833038 402.707977,380.920776 402.701172,378.870636 
	C402.648804,363.074310 402.623810,347.277496 402.712616,331.481537 
	C402.725281,329.234741 401.659332,325.563080 405.396515,325.683929 
	C408.703400,325.790833 408.031036,329.285339 408.210022,331.686859 
	C408.259369,332.348541 408.222778,333.016571 408.226227,334.161316 
z"/>
<path fill="#000000" opacity="1.000000" stroke="none" 
	d="
M400.362946,218.583679 
	C400.371552,213.105759 402.979797,210.877716 406.653595,212.704910 
	C408.473053,213.609863 409.340088,215.065384 409.190582,217.120224 
	C409.056152,218.968216 408.054077,220.320953 406.437592,220.923843 
	C404.061584,221.809967 401.851654,221.545166 400.362946,218.583679 
z"/>
</svg>